<?xml version="1.0" encoding="utf-8"?>
<!-- Generator: Adobe Illustrator 16.0.3, SVG Export Plug-In . SVG Version: 6.00 Build 0)  -->
<!DOCTYPE svg PUBLIC "-//W3C//DTD SVG 1.1//EN" "http://www.w3.org/Graphics/SVG/1.1/DTD/svg11.dtd">
<svg version="1.1" id="Layer_1" xmlns="http://www.w3.org/2000/svg" xmlns:xlink="http://www.w3.org/1999/xlink" x="0px" y="0px"
	 width="72px" height="72px" viewBox="0 0 500 523" enable-background="new 0 0 500 523" xml:space="preserve">
<g>
	<path fill-rule="evenodd" clip-rule="evenodd" fill="#E2FF39" d="M113.503,458.791c23.28-131.977,46.424-263.182,69.612-394.637
		c24.557,0,48.99,0,74.313,0c-12.437,70.869-24.833,141.504-37.424,213.253c9.309-7.568,17.817-14.46,26.297-21.388
		c16.64-13.594,33.299-27.167,49.836-40.886c1.468-1.218,2.702-3.333,3.036-5.211c8.378-47.009,16.619-94.042,24.895-141.07
		c0.258-1.469,0.621-2.919,0.998-4.662c24.641,0,49.196,0,74.152,0c-2.549,14.58-5.018,28.826-7.531,43.064
		c-8.822,49.97-17.66,99.938-26.491,149.906c-8.28,46.856-16.575,93.711-24.832,140.572c-3.175,18.021-6.415,36.034-9.297,54.104
		c-0.807,5.059-2.287,7.24-8.065,7.118c-20.486-0.432-40.988-0.168-61.484-0.168c-1.963,0.001-3.926,0-6.209,0
		c10.327-58.186,20.547-115.77,30.987-174.584c-9.354,7.625-17.822,14.492-26.251,21.407c-16.22,13.307-32.496,26.547-48.536,40.067
		c-2.319,1.954-4.458,5.123-4.993,8.04c-6.005,32.726-11.786,65.494-17.333,98.3c-0.882,5.219-2.638,7.03-8.194,6.926
		c-20.489-0.387-40.989-0.152-61.485-0.152C117.692,458.791,115.88,458.791,113.503,458.791z"/>
</g>
</svg>
